HIERARCHY
ROOT Hips
{
    OFFSET 0.000000 0.000000 0.000000
    CHANNELS 6 Xposition Yposition Zposition Zrotation Xrotation Yrotation
    JOINT Spine
    {
        OFFSET -0.000000 14.517291 0.000000
        CHANNELS 3 Zrotation Xrotation Yrotation
        JOINT Spine1
        {
            OFFSET -0.000000 37.558300 0.000000
            CHANNELS 3 Zrotation Xrotation Yrotation
            JOINT Neck
            {
                OFFSET -0.000000 37.404057 3.400369
                CHANNELS 3 Zrotation Xrotation Yrotation
                JOINT Head
                {
                    OFFSET -0.000000 24.785618 -3.540803
                    CHANNELS 3 Zrotation Xrotation Yrotation
                    End Site
                    {
                        OFFSET -0.000000 35.408028 0.000000
                    }
                }
            }
            JOINT LeftShoulder
            {
                OFFSET 6.992933 33.973492 -0.192664
                CHANNELS 3 Zrotation Xrotation Yrotation
                JOINT LeftArm
                {
                    OFFSET 21.527611 0.000000 0.000000
                    CHANNELS 3 Zrotation Xrotation Yrotation
                    JOINT LeftForeArm
                    {
                        OFFSET 56.353916 0.000000 0.000000
                        CHANNELS 3 Zrotation Xrotation Yrotation
                        JOINT LeftHand
                        {
                            OFFSET 47.774071 0.000000 0.000000
                            CHANNELS 3 Zrotation Xrotation Yrotation
                            End Site
                            {
                                OFFSET 26.556021 0.000000 0.000000
                            }
                        }
                    }
                }
            }
            JOINT RightShoulder
            {
                OFFSET -7.065357 33.973492 -0.192664
                CHANNELS 3 Zrotation Xrotation Yrotation
                JOINT RightArm
                {
                    OFFSET -21.527611 0.000000 0.000000
                    CHANNELS 3 Zrotation Xrotation Yrotation
                    JOINT RightForeArm
                    {
                        OFFSET -56.353916 0.000000 0.000000
                        CHANNELS 3 Zrotation Xrotation Yrotation
                        JOINT RightHand
                        {
                            OFFSET -47.774071 0.000000 0.000000
                            CHANNELS 3 Zrotation Xrotation Yrotation
                            End Site
                            {
                                OFFSET -26.556021 0.000000 0.000000
                            }
                        }
                    }
                }
            }
        }
    }
    JOINT LeftUpLeg
    {
        OFFSET 17.704014 0.000000 0.000000
        CHANNELS 3 Zrotation Xrotation Yrotation
        JOINT LeftLeg
        {
            OFFSET -0.000000 -81.181816 0.000000
            CHANNELS 3 Zrotation Xrotation Yrotation
            JOINT LeftFoot
            {
                OFFSET -0.000000 -62.821102 0.000000
                CHANNELS 3 Zrotation Xrotation Yrotation
                JOINT LeftToeBase
                {
                    OFFSET -0.000000 -11.507608 26.556021
                    CHANNELS 3 Zrotation Xrotation Yrotation
                    End Site
                    {
                        OFFSET -0.000000 0.000000 7.081605
                    }
                }
            }
        }
    }
    JOINT RightUpLeg
    {
        OFFSET -17.704014 0.000000 0.000000
        CHANNELS 3 Zrotation Xrotation Yrotation
        JOINT RightLeg
        {
            OFFSET -0.000000 -81.181816 0.000000
            CHANNELS 3 Zrotation Xrotation Yrotation
            JOINT RightFoot
            {
                OFFSET -0.000000 -62.821102 0.000000
                CHANNELS 3 Zrotation Xrotation Yrotation
                JOINT RightToeBase
                {
                    OFFSET -0.000000 -11.507608 26.556021
                    CHANNELS 3 Zrotation Xrotation Yrotation
                    End Site
                    {
                        OFFSET -0.000000 0.000000 7.081605
                    }
                }
            }
        }
    }
}
MOTION
Frames:    9
Frame Time:    0.008333
17.277548    154.404312    -104.089951    0.800818    -6.037415    38.438721    -2.835302    0.194100    -2.545868    -1.946892    1.466326    -0.827184    2.469319    1.325188    -16.755909    13.509418    6.741873    -16.714218    5.643454    9.109834    -17.947906    -28.186844    23.235851    -51.175873    -4.284738    -10.354478    -107.423286    6.827945    -16.547592    -8.851918    -0.909916    6.425160    -6.390278    29.349598    -3.877469    42.015934    -19.095234    -21.235079    69.482857    4.964965    -6.758490    34.370583    17.072672    -0.822951    1.012305    -14.725735    35.850666    -16.660372    6.032072    -29.034220    44.484070    0.000000    0.000000    0.000000    -17.517912    -16.165184    -12.170933    12.077876    30.148182    -12.850606    4.121127    -0.746492    -17.639826    0.000000    0.000000    0.000000    
17.250576    154.410004    -104.089401    0.813490    -6.030635    38.436432    -2.813740    0.191976    -2.494160    -1.986250    1.450748    -0.809683    2.406269    1.293605    -16.769014    13.520356    6.762383    -16.721527    5.575929    9.091727    -17.946003    -28.175869    23.256126    -51.172031    -4.258086    -10.403858    -107.421471    6.812784    -16.560301    -8.867813    -1.072028    6.317654    -6.252302    29.192198    -4.277707    42.530815    -19.015938    -21.163876    69.068741    4.661477    -6.933058    34.438137    17.066820    -0.808919    1.021211    -14.718524    35.813274    -16.663601    6.020406    -29.007999    44.473366    0.000000    0.000000    0.000000    -17.526558    -16.165148    -12.156497    12.094753    30.137953    -12.870057    4.106771    -0.744448    -17.635880    0.000000    0.000000    0.000000    
17.225630    154.416412    -104.090370    0.831053    -6.025776    38.434505    -2.797106    0.196304    -2.442781    -2.019124    1.432893    -0.792444    2.324623    1.267224    -16.781610    13.559086    6.779307    -16.722986    5.509532    9.076881    -17.941114    -28.184231    23.241467    -51.161438    -4.275086    -10.389185    -107.429459    6.835690    -16.571247    -8.874269    -1.233346    6.227437    -6.108960    29.023779    -4.700916    43.025131    -18.925760    -21.064804    68.688538    5.033295    -6.848846    34.902065    17.054382    -0.794409    1.030010    -14.694669    35.785259    -16.681841    6.002886    -28.988586    44.455513    0.000000    0.000000    0.000000    -17.537344    -16.165548    -12.168332    12.091226    30.142345    -12.870598    4.102155    -0.743828    -17.613386    0.000000    0.000000    0.000000    
17.199017    154.424255    -104.088280    0.841888    -6.022353    38.438770    -2.773219    0.197118    -2.395625    -2.061154    1.420720    -0.776447    2.263039    1.247566    -16.801237    13.591312    6.779295    -16.732912    5.461163    9.057714    -17.928658    -28.191494    23.246735    -51.161808    -4.250483    -10.409411    -107.431931    6.827749    -16.558502    -8.878483    -1.397686    6.134221    -5.962120    28.885475    -5.183802    43.504734    -18.734373    -20.901270    68.349586    4.995406    -6.894337    35.107903    17.051451    -0.788078    1.017263    -14.697856    35.759029    -16.685429    5.978528    -28.975657    44.463337    0.000000    0.000000    0.000000    -17.539579    -16.165970    -12.178823    12.084040    30.145361    -12.849725    4.089979    -0.735584    -17.615797    0.000000    0.000000    0.000000    
17.176250    154.428772    -104.084106    0.859735    -6.019590    38.453453    -2.753869    0.200589    -2.344431    -2.096234    1.412241    -0.759060    2.214431    1.198232    -16.814932    13.577121    6.801337    -16.745287    5.409133    9.046305    -17.915726    -28.176117    23.250185    -51.180149    -4.230236    -10.434740    -107.424210    6.799788    -16.554459    -8.888690    -1.581424    6.046065    -5.824365    28.749447    -5.673922    43.958912    -18.578196    -20.714260    68.041107    4.938533    -6.889532    35.268089    17.040548    -0.775904    0.991350    -14.698920    35.724724    -16.688869    5.974826    -28.958387    44.475479    0.000000    0.000000    0.000000    -17.555216    -16.157522    -12.194623    12.089925    30.150625    -12.859022    4.091937    -0.742037    -17.601522    0.000000    0.000000    0.000000    
17.150911    154.436600    -104.075577    0.870051    -6.023559    38.471439    -2.722108    0.196794    -2.292204    -2.142933    1.414715    -0.740964    2.164360    1.166611    -16.830582    13.595950    6.808938    -16.754803    5.372312    9.025565    -17.909872    -28.189352    23.215021    -51.183178    -4.244641    -10.388582    -107.418777    6.792027    -16.526531    -8.880317    -1.754097    5.953353    -5.686407    28.615864    -6.122088    44.408855    -18.425316    -20.612545    67.715416    4.978074    -6.940316    35.527966    17.039640    -0.767572    0.951507    -14.705679    35.690742    -16.654051    5.949235    -28.944479    44.463036    0.000000    0.000000    0.000000    -17.558239    -16.146580    -12.212437    12.086256    30.157934    -12.853221    4.102125    -0.741145    -17.594210    0.000000    0.000000    0.000000    
17.125494    154.441528    -104.066254    0.883438    -6.024066    38.491714    -2.698457    0.200099    -2.237692    -2.177829    1.397581    -0.722735    2.105440    1.161914    -16.851250    13.616143    6.798419    -16.765514    5.326326    9.016581    -17.906954    -28.183548    23.214420    -51.187351    -4.233325    -10.404734    -107.414726    6.770592    -16.526833    -8.904056    -1.941871    5.864563    -5.544957    28.509087    -6.644991    44.818199    -18.182335    -20.408772    67.473717    4.961485    -6.945505    35.703964    17.036703    -0.758716    0.935722    -14.691794    35.664104    -16.690449    5.935968    -28.936588    44.481518    0.000000    0.000000    0.000000    -17.569771    -16.139967    -12.208357    12.103942    30.169294    -12.871665    4.114880    -0.750362    -17.587429    0.000000    0.000000    0.000000    
17.098600    154.452682    -104.059364    0.885799    -6.029256    38.518261    -2.662049    0.204843    -2.195521    -2.211772    1.378482    -0.708566    2.063280    1.136515    -16.866718    13.605593    6.806517    -16.778145    5.274543    8.997623    -17.894857    -28.187929    23.210152    -51.184166    -4.237700    -10.394831    -107.422226    6.783698    -16.525291    -8.913170    -2.126118    5.780369    -5.414671    28.330965    -7.065329    45.228531    -18.046404    -20.324905    67.121040    5.056436    -6.968737    36.370941    17.046715    -0.759262    0.888484    -14.699011    35.635719    -16.682060    5.928935    -28.907967    44.481697    0.000000    0.000000    0.000000    -17.567495    -16.135326    -12.227668    12.104764    30.179907    -12.847330    4.121782    -0.729182    -17.622084    0.000000    0.000000    0.000000    
17.075134    154.463272    -104.046654    0.892433    -6.038385    38.545048    -2.629402    0.211646    -2.156627    -2.250265    1.358557    -0.695552    2.022790    1.119826    -16.878057    13.613375    6.812889    -16.784853    5.234391    8.980810    -17.891346    -28.224806    23.187536    -51.150600    -4.239802    -10.357354    -107.425697    6.755869    -16.491072    -8.937630    -2.294409    5.672562    -5.261935    28.216480    -7.631965    45.624638    -17.838898    -19.959927    66.913727    4.826485    -6.861247    36.053310    17.058355    -0.747842    0.857510    -14.699335    35.603859    -16.681801    5.912847    -28.893236    44.472439    0.000000    0.000000    0.000000    -17.568914    -16.121260    -12.223065    12.119990    30.186728    -12.847509    4.139771    -0.719773    -17.636463    0.000000    0.000000    0.000000    
